<svg width="24" height="25" viewBox="0 0 24 25" fill="none" xmlns="http://www.w3.org/2000/svg">
<path fill-rule="evenodd" clip-rule="evenodd" d="M20.5297 11.97C20.6701 12.1107 20.749 12.3013 20.749 12.5C20.749 12.6988 20.6701 12.8894 20.5297 13.03L14.5297 19.03C14.461 19.1037 14.3782 19.1628 14.2862 19.2038C14.1942 19.2448 14.0949 19.2668 13.9942 19.2686C13.8935 19.2704 13.7935 19.2519 13.7001 19.2142C13.6067 19.1764 13.5219 19.1203 13.4506 19.0491C13.3794 18.9779 13.3233 18.893 13.2856 18.7996C13.2478 18.7062 13.2293 18.6062 13.2311 18.5055C13.2329 18.4048 13.2549 18.3055 13.2959 18.2135C13.3369 18.1215 13.396 18.0387 13.4697 17.97L18.1897 13.25L3.99968 13.25C3.80077 13.25 3.61 13.171 3.46935 13.0304C3.3287 12.8897 3.24968 12.6989 3.24968 12.5C3.24968 12.3011 3.3287 12.1104 3.46935 11.9697C3.61 11.829 3.80077 11.75 3.99968 11.75L18.1897 11.75L13.4697 7.03003C13.396 6.96137 13.3369 6.87857 13.2959 6.78657C13.2549 6.69457 13.2329 6.59526 13.2311 6.49455C13.2293 6.39385 13.2478 6.29382 13.2856 6.20043C13.3233 6.10705 13.3794 6.02221 13.4506 5.95099C13.5219 5.87977 13.6067 5.82363 13.7001 5.78591C13.7935 5.74819 13.8935 5.72966 13.9942 5.73144C14.0949 5.73322 14.1942 5.75526 14.2862 5.79625C14.3782 5.83724 14.461 5.89634 14.5297 5.97003L20.5297 11.97Z" fill="#00BD95"/>
</svg>
