<svg width="56" height="55" viewBox="0 0 56 55" fill="none" xmlns="http://www.w3.org/2000/svg">
<path d="M31.902 3.17543L47.7056 12.2996C49.8714 13.55 51.2056 15.8609 51.2056 18.3618V36.6102C51.2056 39.111 49.8714 41.4219 47.7056 42.6723L31.902 51.7965C29.7362 53.047 27.0678 53.047 24.902 51.7965L9.09844 42.6724C6.93263 41.4219 5.59844 39.111 5.59844 36.6102V18.3618C5.59844 15.8609 6.93263 13.55 9.09844 12.2996L24.902 3.17543C27.0678 1.925 29.7362 1.925 31.902 3.17543Z" fill="#155750" fill-opacity="0.2" stroke="#00BD95" stroke-width="2"/>
<g clip-path="url(#clip0_1561_87)">
<path d="M26.685 26.7004H26.5554L26.8433 26.542C27.4405 26.2343 27.9069 25.7219 28.1573 25.0985C28.384 24.4448 28.4438 23.7448 28.3313 23.0622C28.2641 22.4585 28.0357 21.8841 27.67 21.3991C27.3043 20.9142 26.8149 20.5366 26.253 20.306C25.5241 19.9911 24.737 19.8337 23.9431 19.844H16.6104V34.6679H23.3084C23.9464 34.6685 24.5834 34.6155 25.2126 34.5095C25.8996 34.412 26.5513 34.1443 27.1085 33.7309C27.6658 33.3174 28.1108 32.7713 28.4033 32.1421C28.8405 31.2464 28.9672 30.2306 28.7632 29.255C28.677 28.6821 28.4387 28.1428 28.0732 27.6933C27.7076 27.2437 27.2283 26.9004 26.685 26.6992V26.7004ZM20.0901 22.4286H22.9772C23.4644 22.4284 23.9496 22.4913 24.4207 22.6158C24.6767 22.6763 24.9069 22.8164 25.0781 23.0161C25.2494 23.2158 25.3528 23.4647 25.3734 23.727C25.4326 24.0224 25.4326 24.3267 25.3734 24.6221C25.332 24.789 25.2551 24.945 25.1481 25.0795C25.041 25.2141 24.9063 25.3241 24.7531 25.4021C24.3058 25.6264 23.8096 25.7353 23.3096 25.7188H20.0601L20.0901 22.4286ZM25.6758 30.7129C25.6108 31.063 25.436 31.3831 25.1766 31.627C24.9172 31.8708 24.5869 32.0256 24.2335 32.0689C23.9197 32.1317 23.6008 32.1658 23.2808 32.1709H20.0601V28.2447H23.4955C23.8643 28.245 24.2304 28.3083 24.5779 28.4319C24.8874 28.5298 25.1589 28.7211 25.3553 28.9796C25.5517 29.2381 25.6632 29.551 25.6746 29.8754C25.7123 30.1533 25.7123 30.435 25.6746 30.7129H25.6758ZM40.6017 29.7458C40.6161 29.717 40.6161 29.6882 40.5729 29.717V28.1151C40.5583 27.381 40.3908 26.6581 40.081 25.9924C39.6121 24.9921 38.7897 24.2006 37.7723 23.7702C36.6531 23.3102 35.4233 23.1896 34.2361 23.4234C33.3342 23.5491 32.4888 23.9358 31.804 24.536C31.1192 25.1362 30.6249 25.9236 30.3819 26.8012C29.9604 28.1479 29.9009 29.5819 30.2092 30.9589C30.3532 31.7356 30.7133 32.456 31.2483 33.0372C31.9304 33.7337 32.7883 34.2325 33.7309 34.4807C34.6381 34.7284 35.5881 34.7775 36.516 34.6247C37.6823 34.4828 38.7561 33.9179 39.5338 33.0372C39.9206 32.6246 40.2115 32.1317 40.3858 31.5937C40.468 31.4705 40.5037 31.322 40.4865 31.1749H37.6571C37.6271 31.1724 37.597 31.1795 37.5712 31.195C37.5454 31.2104 37.5251 31.2337 37.5131 31.2613C37.3716 31.5403 37.1678 31.7831 36.9175 31.9707C36.6672 32.1584 36.3771 32.286 36.0696 32.3436C35.6409 32.4314 35.1988 32.4314 34.7701 32.3436C34.4018 32.2885 34.0526 32.1439 33.753 31.9226C33.4535 31.7013 33.2127 31.41 33.0518 31.0741C32.9253 30.8 32.8427 30.5076 32.807 30.2078V29.7458H40.6017ZM32.9798 27.6675C33.0434 27.4367 33.1207 27.2099 33.2114 26.9884C33.3641 26.6101 33.625 26.2852 33.9613 26.0543C34.2976 25.8234 34.6945 25.6967 35.1025 25.69C35.5286 25.6495 35.9583 25.7087 36.3576 25.8628C36.7195 26.0014 37.037 26.2359 37.2758 26.5412C37.5147 26.8464 37.666 27.2109 37.7135 27.5955V27.8979L32.9798 27.9411C32.9746 27.85 32.9746 27.7586 32.9798 27.6675ZM38.2775 20.4499H32.273V22.1826L38.2775 22.1682V20.4499Z" fill="#00BD95"/>
</g>
<defs>
<clipPath id="clip0_1561_87">
<rect width="24" height="24" fill="white" transform="translate(16.6104 15.2776)"/>
</clipPath>
</defs>
</svg>
