<svg width="56" height="55" viewBox="0 0 56 55" fill="none" xmlns="http://www.w3.org/2000/svg">
<path d="M24.9298 3.17543C27.0956 1.925 29.764 1.925 31.9298 3.17543L47.7334 12.2996C49.8992 13.55 51.2334 15.8609 51.2334 18.3618V36.6102C51.2334 39.111 49.8992 41.4219 47.7334 42.6724L31.9298 51.7965C29.764 53.047 27.0956 53.047 24.9298 51.7965L9.12627 42.6724C6.96046 41.4219 5.62627 39.111 5.62627 36.6102V18.3618C5.62627 15.8609 6.96046 13.55 9.12627 12.2996L24.9298 3.17543Z" fill="#155750" fill-opacity="0.2" stroke="#00BD95" stroke-width="2"/>
<path d="M28.2948 22.1474C25.199 22.1474 22.7019 24.531 22.7019 27.4861C22.7019 30.4412 25.199 32.8247 28.2948 32.8247C31.3906 32.8247 33.8877 30.4412 33.8877 27.4861C33.8877 24.531 31.3906 22.1474 28.2948 22.1474ZM28.2948 30.9569C26.2942 30.9569 24.6587 29.4004 24.6587 27.4861C24.6587 25.5718 26.2893 24.0152 28.2948 24.0152C30.3003 24.0152 31.9309 25.5718 31.9309 27.4861C31.9309 29.4004 30.2954 30.9569 28.2948 30.9569ZM35.421 21.929C35.421 22.6213 34.8369 23.1742 34.1165 23.1742C33.3912 23.1742 32.812 22.6167 32.812 21.929C32.812 21.2413 33.3961 20.6838 34.1165 20.6838C34.8369 20.6838 35.421 21.2413 35.421 21.929ZM39.1253 23.1928C39.0425 21.5248 38.6434 20.0472 37.3632 18.8299C36.0879 17.6125 34.54 17.2315 32.7925 17.1479C30.9915 17.0503 25.5933 17.0503 23.7923 17.1479C22.0496 17.2269 20.5017 17.6079 19.2216 18.8252C17.9414 20.0426 17.5471 21.5201 17.4595 23.1882C17.3573 24.9073 17.3573 30.0602 17.4595 31.7793C17.5422 33.4474 17.9414 34.9249 19.2216 36.1423C20.5017 37.3596 22.0448 37.7406 23.7923 37.8242C25.5933 37.9218 30.9915 37.9218 32.7925 37.8242C34.54 37.7453 36.0879 37.3643 37.3632 36.1423C38.6385 34.9249 39.0376 33.4474 39.1253 31.7793C39.2275 30.0602 39.2275 24.912 39.1253 23.1928ZM36.7985 33.6239C36.4189 34.5346 35.6839 35.2362 34.7249 35.6033C33.289 36.1469 29.8817 36.0214 28.2948 36.0214C26.708 36.0214 23.2958 36.1423 21.8647 35.6033C20.9106 35.2409 20.1756 34.5393 19.7911 33.6239C19.2216 32.2532 19.353 29.0008 19.353 27.4861C19.353 25.9713 19.2264 22.7142 19.7911 21.3482C20.1707 20.4375 20.9058 19.7359 21.8647 19.3689C23.3006 18.8252 26.708 18.9507 28.2948 18.9507C29.8817 18.9507 33.2939 18.8299 34.7249 19.3689C35.679 19.7313 36.414 20.4329 36.7985 21.3482C37.3681 22.7189 37.2366 25.9713 37.2366 27.4861C37.2366 29.0008 37.3681 32.2579 36.7985 33.6239Z" fill="#00BD95"/>
</svg>
