<svg width="55" height="55" viewBox="0 0 55 55" fill="none" xmlns="http://www.w3.org/2000/svg">
<path d="M23.986 3.17543C26.1518 1.925 28.8202 1.925 30.986 3.17543L46.7895 12.2996C48.9553 13.55 50.2895 15.8609 50.2895 18.3618V36.6102C50.2895 39.111 48.9553 41.4219 46.7895 42.6724L30.986 51.7965C28.8202 53.047 26.1518 53.047 23.986 51.7965L8.18243 42.6724C6.01662 41.4219 4.68242 39.111 4.68242 36.6102V18.3618C4.68242 15.8609 6.01662 13.55 8.18242 12.2996L23.986 3.17543Z" fill="#155750" fill-opacity="0.2" stroke="#00BD95" stroke-width="2"/>
<path d="M22.7189 35.8151H18.6485V23.3031H22.7189V35.8151ZM20.6815 21.5964C19.3799 21.5964 18.3242 20.5673 18.3242 19.3249C18.3242 18.7281 18.5726 18.1557 19.0147 17.7338C19.4567 17.3118 20.0563 17.0747 20.6815 17.0747C21.3067 17.0747 21.9063 17.3118 22.3484 17.7338C22.7905 18.1557 23.0388 18.7281 23.0388 19.3249C23.0388 20.5673 21.9827 21.5964 20.6815 21.5964ZM37.9531 35.8151H33.8915V29.7244C33.8915 28.2728 33.8608 26.4113 31.7752 26.4113C29.6589 26.4113 29.3346 27.9883 29.3346 29.6198V35.8151H25.2686V23.3031H29.1725V25.0099H29.2295C29.7729 24.0268 31.1003 22.9894 33.0807 22.9894C37.2002 22.9894 37.9575 25.5788 37.9575 28.9421V35.8151H37.9531Z" fill="#00BD95"/>
</svg>
