<svg width="162" height="72" viewBox="0 0 162 72" fill="none" xmlns="http://www.w3.org/2000/svg">
<path d="M63.297 23.535C62.3433 24.5939 61.1841 25.4475 59.8899 26.044C58.5957 26.6405 57.1936 26.9673 55.7691 27.0045C54.3445 27.0417 52.9273 26.7885 51.6038 26.2604C50.2802 25.7323 49.078 24.9403 48.0703 23.9327C47.0627 22.925 46.2707 21.7228 45.7426 20.3992C45.2145 19.0757 44.9613 17.6585 44.9985 16.2339C45.0357 14.8094 45.3625 13.4073 45.959 12.1131C46.5555 10.8189 47.4091 9.65968 48.468 8.706M63.297 23.535C65.0811 27.4482 66.0029 31.6993 66 36C66 52.569 52.569 66 36 66C19.431 66 6 52.569 6 36C6 19.431 19.431 6 36 6C40.449 6 44.67 6.969 48.465 8.703C55.0281 11.7104 60.2897 16.9719 63.297 23.535ZM30 24H30.018M21 42H21.018" stroke="#929292" stroke-width="4.5" stroke-linecap="round" stroke-linejoin="round"/>
<path d="M48 48C48 49.5913 47.3679 51.1174 46.2426 52.2426C45.1174 53.3679 43.5913 54 42 54C40.4087 54 38.8826 53.3679 37.7574 52.2426C36.6321 51.1174 36 49.5913 36 48C36 46.4087 36.6321 44.8826 37.7574 43.7574C38.8826 42.6321 40.4087 42 42 42C43.5913 42 45.1174 42.6321 46.2426 43.7574C47.3679 44.8826 48 46.4087 48 48Z" stroke="#929292" stroke-width="4.5" stroke-linecap="round" stroke-linejoin="round"/>
<path d="M88 33L94.446 20.064H98.78L105.204 33H101.816L100.518 30.206H92.642L91.212 33H88ZM93.434 28.05H99.704L96.69 22.044H96.47L93.434 28.05ZM106.969 33V23.144H108.773L109.653 23.584C110.269 23.4667 111.01 23.364 111.875 23.276C112.74 23.188 113.73 23.144 114.845 23.144H115.945C116.678 23.144 117.243 23.2467 117.639 23.452C118.035 23.6573 118.314 23.914 118.475 24.222C118.651 24.53 118.754 24.8453 118.783 25.168C118.827 25.476 118.849 25.74 118.849 25.96V33H116.165V25.916C116.165 25.3293 115.813 25.036 115.109 25.036H110.313C110.034 25.036 109.851 25.0653 109.763 25.124C109.69 25.168 109.653 25.3 109.653 25.52V33H106.969ZM124.509 33C123.776 33 123.211 32.9047 122.815 32.714C122.419 32.5233 122.133 32.2813 121.957 31.988C121.796 31.6947 121.693 31.3867 121.649 31.064C121.62 30.7413 121.605 30.448 121.605 30.184V25.96C121.605 25.74 121.62 25.476 121.649 25.168C121.693 24.8453 121.796 24.53 121.957 24.222C122.133 23.914 122.419 23.6573 122.815 23.452C123.226 23.2467 123.79 23.144 124.509 23.144H125.631C126.98 23.144 128.066 23.1733 128.887 23.232C129.723 23.276 130.361 23.3273 130.801 23.386V19.052H133.485V33H131.681L130.823 32.56C130.207 32.6627 129.466 32.7653 128.601 32.868C127.736 32.956 126.738 33 125.609 33H124.509ZM125.345 31.108H130.119C130.427 31.108 130.618 31.0713 130.691 30.998C130.764 30.9247 130.801 30.7413 130.801 30.448V25.19C130.302 25.1607 129.672 25.1313 128.909 25.102C128.146 25.058 127.332 25.036 126.467 25.036H125.345C124.641 25.036 124.289 25.3293 124.289 25.916V30.228C124.289 30.8147 124.641 31.108 125.345 31.108ZM136.788 33V23.144H138.592L139.428 23.584C139.81 23.3787 140.22 23.2173 140.66 23.1C141.1 22.9827 141.658 22.924 142.332 22.924C143.403 22.924 144.268 23.0413 144.928 23.276C145.603 23.5107 146.05 23.6867 146.27 23.804L145.5 25.718C145.324 25.63 145.031 25.52 144.62 25.388C144.224 25.2413 143.755 25.1093 143.212 24.992C142.67 24.8747 142.076 24.816 141.43 24.816H141.188C140.484 24.816 140.022 24.9553 139.802 25.234C139.597 25.5127 139.487 25.9747 139.472 26.62V33H136.788ZM150.934 33C150.201 33 149.636 32.9047 149.24 32.714C148.844 32.5233 148.558 32.2813 148.382 31.988C148.221 31.6947 148.118 31.3867 148.074 31.064C148.045 30.7413 148.03 30.448 148.03 30.184V25.96C148.03 25.74 148.045 25.476 148.074 25.168C148.118 24.8453 148.221 24.53 148.382 24.222C148.558 23.914 148.844 23.6573 149.24 23.452C149.651 23.2467 150.215 23.144 150.934 23.144H155.664C156.632 23.144 157.387 23.2393 157.93 23.43C158.487 23.606 158.876 23.8993 159.096 24.31C159.331 24.7207 159.448 25.2707 159.448 25.96V29.216H155.598C154.278 29.216 153.2 29.1867 152.364 29.128C151.543 29.0693 150.993 29.0327 150.714 29.018V30.228C150.699 30.8147 151.051 31.108 151.77 31.108H152.892C153.684 31.108 154.454 31.1007 155.202 31.086C155.965 31.0567 156.661 31.0273 157.292 30.998C157.923 30.954 158.429 30.9173 158.81 30.888L159.69 32.318C159.69 32.7727 158.245 33 155.356 33H150.934ZM150.714 27.324H156.764V25.916C156.764 25.6227 156.727 25.4173 156.654 25.3C156.595 25.1827 156.405 25.1093 156.082 25.08C155.759 25.0507 155.209 25.036 154.432 25.036H151.77C151.066 25.036 150.714 25.3293 150.714 25.916V27.324ZM153.09 21.604C153.09 21.4133 153.156 21.1493 153.288 20.812C153.435 20.46 153.596 20.1153 153.772 19.778C153.948 19.426 154.087 19.162 154.19 18.986C154.322 18.7807 154.483 18.6267 154.674 18.524C154.879 18.4067 155.158 18.348 155.51 18.348H155.752C156.324 18.348 156.61 18.5607 156.61 18.986C156.61 19.206 156.471 19.4847 156.192 19.822C155.928 20.1593 155.605 20.4893 155.224 20.812C154.857 21.12 154.513 21.3767 154.19 21.582C153.955 21.7287 153.713 21.8387 153.464 21.912C153.215 21.9853 153.09 21.8827 153.09 21.604ZM92.8077 54L88 43.5476H91.7572L94.3925 49.8511L94.8733 51.3112H95.0335L95.4965 49.8511L98.1853 43.5476H101.853L101.569 44.616L97.0991 54H92.8077ZM104.734 45.257C103.535 45.257 102.936 44.7466 102.936 43.7257C102.936 43.1559 103.084 42.7641 103.381 42.5505C103.69 42.3249 104.141 42.2121 104.734 42.2121C105.363 42.2121 105.821 42.3249 106.105 42.5505C106.402 42.7641 106.551 43.1559 106.551 43.7257C106.551 44.7466 105.945 45.257 104.734 45.257ZM103.096 54V46.0227H106.337V54H103.096ZM109.048 54V46.0227H111.576L112.253 46.3788C112.799 46.0227 113.523 45.8446 114.425 45.8446C115.019 45.8446 115.541 45.9099 115.992 46.0405C116.443 46.1592 116.805 46.2898 117.078 46.4323C117.363 46.5747 117.541 46.6756 117.613 46.735L116.722 49.0498C116.604 48.9667 116.378 48.8539 116.046 48.7115C115.725 48.569 115.345 48.4385 114.906 48.3197C114.467 48.1892 114.004 48.1239 113.517 48.1239H113.321C112.989 48.1239 112.734 48.1832 112.556 48.3019C112.378 48.4088 112.289 48.6521 112.289 49.032V54H109.048ZM124.714 57.1339C123.491 57.1339 122.494 57.1102 121.722 57.0627C120.95 57.0271 120.357 56.9737 119.941 56.9025C119.526 56.8312 119.241 56.7481 119.087 56.6532C118.932 56.5701 118.855 56.487 118.855 56.4039L119.746 54.5342C119.876 54.5698 120.167 54.6351 120.618 54.7301C121.069 54.8369 121.728 54.8903 122.595 54.8903H125.283C125.592 54.8903 125.812 54.8369 125.942 54.7301C126.085 54.6232 126.15 54.4392 126.138 54.1781V53.448C125.77 53.5548 125.254 53.6439 124.589 53.7151C123.936 53.7745 123.17 53.8041 122.292 53.8041H121.776C120.992 53.8041 120.404 53.6973 120.013 53.4836C119.633 53.2581 119.378 52.9494 119.247 52.5577C119.128 52.1659 119.069 51.697 119.069 51.151V48.6581C119.069 48.3732 119.099 48.0764 119.158 47.7677C119.229 47.4591 119.354 47.1742 119.532 46.913C119.722 46.6519 119.995 46.4382 120.351 46.272C120.719 46.1058 121.194 46.0227 121.776 46.0227H122.31C123.141 46.0227 123.817 46.0346 124.34 46.0583C124.862 46.0821 125.277 46.1117 125.586 46.1474C125.907 46.183 126.174 46.2186 126.387 46.2542L126.85 46.0227H129.379V54.4986C129.379 55.2821 129.13 55.9172 128.631 56.4039C128.132 56.8906 127.301 57.1339 126.138 57.1339H124.714ZM123.218 51.5605H125.586C125.859 51.5605 126.019 51.5368 126.067 51.4893C126.114 51.4418 126.138 51.2875 126.138 51.0263V48.391C125.877 48.3672 125.622 48.3494 125.372 48.3375C125.135 48.3138 124.862 48.296 124.553 48.2841C124.257 48.2723 123.877 48.2663 123.414 48.2663H123.218C122.648 48.2663 122.363 48.5037 122.363 48.9786V50.8483C122.351 51.3231 122.636 51.5605 123.218 51.5605ZM133.677 45.257C132.478 45.257 131.879 44.7466 131.879 43.7257C131.879 43.1559 132.027 42.7641 132.324 42.5505C132.633 42.3249 133.084 42.2121 133.677 42.2121C134.307 42.2121 134.764 42.3249 135.049 42.5505C135.345 42.7641 135.494 43.1559 135.494 43.7257C135.494 44.7466 134.888 45.257 133.677 45.257ZM132.039 54V46.0227H135.28V54H132.039ZM138.169 54V44.1352L137.991 42.7107H141.41V54H138.169ZM145.693 45.257C144.494 45.257 143.894 44.7466 143.894 43.7257C143.894 43.1559 144.043 42.7641 144.339 42.5505C144.648 42.3249 145.099 42.2121 145.693 42.2121C146.322 42.2121 146.779 42.3249 147.064 42.5505C147.36 42.7641 147.509 43.1559 147.509 43.7257C147.509 44.7466 146.903 45.257 145.693 45.257ZM144.054 54V46.0227H147.295V54H144.054ZM152.552 54C151.769 54 151.181 53.8872 150.79 53.6617C150.398 53.4361 150.137 53.1275 150.006 52.7357C149.887 52.3321 149.828 51.8692 149.828 51.3468V48.6581C149.828 48.1595 149.893 47.7143 150.024 47.3226C150.154 46.919 150.41 46.6044 150.79 46.3788C151.181 46.1414 151.769 46.0227 152.552 46.0227H157.503C158.286 46.0227 158.868 46.1414 159.248 46.3788C159.639 46.6044 159.895 46.919 160.013 47.3226C160.144 47.7143 160.209 48.1595 160.209 48.6581V51.3468C160.209 51.8692 160.144 52.3321 160.013 52.7357C159.895 53.1275 159.639 53.4361 159.248 53.6617C158.868 53.8872 158.286 54 157.503 54H152.552ZM153.977 51.7564H156.096C156.666 51.7564 156.945 51.519 156.933 51.0441V48.9786C156.933 48.7412 156.868 48.5631 156.737 48.4444C156.618 48.3257 156.405 48.2663 156.096 48.2663H153.995C153.686 48.2663 153.466 48.3257 153.336 48.4444C153.205 48.5631 153.14 48.7412 153.14 48.9786V51.0441C153.128 51.519 153.407 51.7564 153.977 51.7564Z" fill="#929292"/>
</svg>
