<svg width="56" height="55" viewBox="0 0 56 55" fill="none" xmlns="http://www.w3.org/2000/svg">
<path d="M24.9581 3.17543C27.124 1.925 29.7923 1.925 31.9581 3.17543L47.7617 12.2996C49.9275 13.55 51.2617 15.8609 51.2617 18.3618V36.6102C51.2617 39.111 49.9275 41.4219 47.7617 42.6724L31.9582 51.7965C29.7923 53.047 27.124 53.047 24.9581 51.7965L9.15459 42.6724C6.98879 41.4219 5.65459 39.111 5.65459 36.6102V18.3618C5.65459 15.8609 6.98878 13.55 9.15459 12.2996L24.9581 3.17543Z" fill="#155750" fill-opacity="0.2" stroke="#00BD95" stroke-width="2"/>
<path d="M35.7413 20.1005C33.7032 18.1484 30.989 17.0747 28.1046 17.0747C22.1509 17.0747 17.3063 21.704 17.3063 27.3931C17.3063 29.2104 17.8024 30.986 18.7461 32.5523L17.2139 37.8974L22.9389 36.4612C24.5149 37.2839 26.2903 37.7162 28.0997 37.7162H28.1046C34.0534 37.7162 39.0051 33.0868 39.0051 27.3978C39.0051 24.6415 37.7793 22.0526 35.7413 20.1005ZM28.1046 35.9778C26.4897 35.9778 24.9089 35.5642 23.5323 34.7833L23.2064 34.5974L19.8113 35.448L20.716 32.2827L20.502 31.9574C19.6021 30.5909 19.1303 29.0152 19.1303 27.3931C19.1303 22.6662 23.1578 18.8177 28.1095 18.8177C30.5075 18.8177 32.7596 19.7101 34.4523 21.3322C36.145 22.9543 37.1859 25.1063 37.181 27.3978C37.181 32.1293 33.0514 35.9778 28.1046 35.9778ZM33.0271 29.5544C32.7596 29.4242 31.4317 28.8014 31.1836 28.7178C30.9355 28.6295 30.7555 28.5876 30.5756 28.8479C30.3956 29.1082 29.88 29.6845 29.7195 29.8612C29.5638 30.0331 29.4033 30.0564 29.1358 29.9262C27.5501 29.1686 26.5092 28.5737 25.4634 26.8586C25.1861 26.4031 25.7407 26.4356 26.2562 25.4503C26.3438 25.2783 26.3 25.1296 26.2319 24.9994C26.1638 24.8693 25.6239 23.6004 25.4002 23.0845C25.1813 22.5825 24.9575 22.6522 24.7921 22.6429C24.6365 22.6336 24.4565 22.6336 24.2766 22.6336C24.0966 22.6336 23.8047 22.6987 23.5567 22.9543C23.3086 23.2146 22.613 23.8374 22.613 25.1063C22.613 26.3752 23.581 27.6023 23.7123 27.7742C23.8485 27.9462 25.6142 30.549 28.3235 31.6692C30.0357 32.3757 30.7069 32.4361 31.563 32.3153C32.0834 32.2409 33.1584 31.6924 33.3822 31.0882C33.6059 30.484 33.6059 29.9681 33.5378 29.8612C33.4746 29.745 33.2946 29.6799 33.0271 29.5544Z" fill="#00BD95"/>
</svg>
