<svg width="121" height="54" viewBox="0 0 121 54" fill="none" xmlns="http://www.w3.org/2000/svg">
<path d="M47.0854 17.5076C46.376 18.2952 45.5136 18.9303 44.5509 19.374C43.5882 19.8177 42.5452 20.0608 41.4855 20.0884C40.4258 20.1161 39.3716 19.9278 38.387 19.5349C37.4024 19.1421 36.5081 18.553 35.7586 17.8034C35.009 17.0538 34.4198 16.1595 34.027 15.1749C33.6341 14.1904 33.4458 13.1361 33.4735 12.0764C33.5012 11.0167 33.7443 9.97377 34.188 9.01105C34.6317 8.04832 35.2667 7.18599 36.0544 6.47656M47.0854 17.5076C48.4125 20.4185 49.0982 23.5808 49.0961 26.78C49.0961 39.1054 39.105 49.0964 26.7797 49.0964C14.4543 49.0964 4.46326 39.1054 4.46326 26.78C4.46326 14.4547 14.4543 4.46362 26.7797 4.46362C30.0892 4.46362 33.2291 5.18444 36.0521 6.47433C40.9343 8.71144 44.8483 12.6254 47.0854 17.5076ZM22.3164 17.8535H22.3298M15.6215 31.2433H15.6349" stroke="#00BD95" stroke-width="3.34746" stroke-linecap="round" stroke-linejoin="round"/>
<path d="M35.7062 35.7064C35.7062 36.8902 35.236 38.0254 34.399 38.8625C33.5619 39.6995 32.4267 40.1697 31.2429 40.1697C30.0592 40.1697 28.924 39.6995 28.0869 38.8625C27.2499 38.0254 26.7797 36.8902 26.7797 35.7064C26.7797 34.5227 27.2499 33.3875 28.0869 32.5504C28.924 31.7134 30.0592 31.2432 31.2429 31.2432C32.4267 31.2432 33.5619 31.7134 34.399 32.5504C35.236 33.3875 35.7062 34.5227 35.7062 35.7064Z" stroke="#00BD95" stroke-width="3.34746" stroke-linecap="round" stroke-linejoin="round"/>
<path d="M65.4615 24.2798L70.2565 14.6569H73.4805L78.2592 24.2798H75.7389L74.7734 22.2014H68.9146L67.8508 24.2798H65.4615ZM69.5037 20.5976H74.1679L71.9258 16.1298H71.7622L69.5037 20.5976ZM79.5721 24.2798V16.9481H80.9141L81.5687 17.2754C82.0269 17.1881 82.5779 17.1118 83.2216 17.0463C83.8653 16.9808 84.6018 16.9481 85.4309 16.9481H86.2492C86.7947 16.9481 87.2148 17.0245 87.5093 17.1772C87.8039 17.33 88.0112 17.5209 88.1312 17.75C88.2622 17.9791 88.3385 18.2137 88.3603 18.4537C88.3931 18.6828 88.4094 18.8792 88.4094 19.0429V24.2798H86.4129V19.0101C86.4129 18.5737 86.151 18.3555 85.6273 18.3555H82.0597C81.8524 18.3555 81.716 18.3773 81.6505 18.421C81.596 18.4537 81.5687 18.5519 81.5687 18.7156V24.2798H79.5721ZM92.6198 24.2798C92.0743 24.2798 91.6543 24.2089 91.3597 24.067C91.0651 23.9252 90.8524 23.7452 90.7214 23.527C90.6014 23.3088 90.5251 23.0797 90.4923 22.8396C90.4705 22.5996 90.4596 22.3814 90.4596 22.185V19.0429C90.4596 18.8792 90.4705 18.6828 90.4923 18.4537C90.5251 18.2137 90.6014 17.9791 90.7214 17.75C90.8524 17.5209 91.0651 17.33 91.3597 17.1772C91.6652 17.0245 92.0852 16.9481 92.6198 16.9481H93.4545C94.4582 16.9481 95.2656 16.9699 95.8765 17.0136C96.4984 17.0463 96.973 17.0845 97.3003 17.1281V13.9041H99.2969V24.2798H97.9549L97.3167 23.9525C96.8584 24.0288 96.3075 24.1052 95.6638 24.1816C95.0201 24.2471 94.2782 24.2798 93.4381 24.2798H92.6198ZM93.2417 22.8724H96.793C97.0221 22.8724 97.1639 22.8451 97.2185 22.7905C97.273 22.736 97.3003 22.5996 97.3003 22.3814V18.4701C96.9294 18.4483 96.4602 18.4264 95.8929 18.4046C95.3256 18.3719 94.72 18.3555 94.0763 18.3555H93.2417C92.718 18.3555 92.4562 18.5737 92.4562 19.0101V22.2177C92.4562 22.6542 92.718 22.8724 93.2417 22.8724ZM101.754 24.2798V16.9481H103.096L103.718 17.2754C104.002 17.1227 104.307 17.0027 104.635 16.9154C104.962 16.8281 105.376 16.7844 105.878 16.7844C106.675 16.7844 107.318 16.8717 107.809 17.0463C108.311 17.2209 108.644 17.3518 108.808 17.4391L108.235 18.8628C108.104 18.7974 107.886 18.7156 107.58 18.6174C107.286 18.5083 106.937 18.4101 106.533 18.3228C106.129 18.2355 105.687 18.1919 105.207 18.1919H105.027C104.504 18.1919 104.16 18.2955 103.996 18.5028C103.844 18.7101 103.762 19.0538 103.751 19.5338V24.2798H101.754ZM112.277 24.2798C111.731 24.2798 111.311 24.2089 111.017 24.067C110.722 23.9252 110.509 23.7452 110.378 23.527C110.258 23.3088 110.182 23.0797 110.149 22.8396C110.127 22.5996 110.117 22.3814 110.117 22.185V19.0429C110.117 18.8792 110.127 18.6828 110.149 18.4537C110.182 18.2137 110.258 17.9791 110.378 17.75C110.509 17.5209 110.722 17.33 111.017 17.1772C111.322 17.0245 111.742 16.9481 112.277 16.9481H115.795C116.515 16.9481 117.077 17.019 117.481 17.1608C117.896 17.2918 118.185 17.51 118.348 17.8155C118.523 18.121 118.61 18.5301 118.61 19.0429V21.4649H115.746C114.764 21.4649 113.962 21.4431 113.341 21.3995C112.73 21.3558 112.32 21.3286 112.113 21.3177V22.2177C112.102 22.6542 112.364 22.8724 112.899 22.8724H113.733C114.322 22.8724 114.895 22.8669 115.452 22.856C116.019 22.8342 116.537 22.8124 117.006 22.7905C117.476 22.7578 117.852 22.7305 118.136 22.7087L118.79 23.7725C118.79 24.1107 117.716 24.2798 115.566 24.2798H112.277ZM112.113 20.0575H116.614V19.0101C116.614 18.7919 116.586 18.6392 116.532 18.5519C116.488 18.4646 116.346 18.4101 116.106 18.3883C115.866 18.3664 115.457 18.3555 114.879 18.3555H112.899C112.375 18.3555 112.113 18.5737 112.113 19.0101V20.0575ZM113.881 15.8025C113.881 15.6607 113.93 15.4643 114.028 15.2134C114.137 14.9515 114.257 14.6951 114.388 14.4442C114.519 14.1824 114.623 13.986 114.699 13.855C114.797 13.7023 114.917 13.5877 115.059 13.5114C115.212 13.4241 115.419 13.3804 115.681 13.3804H115.861C116.286 13.3804 116.499 13.5386 116.499 13.855C116.499 14.0187 116.395 14.226 116.188 14.4769C115.992 14.7279 115.752 14.9733 115.468 15.2134C115.195 15.4425 114.939 15.6334 114.699 15.7862C114.524 15.8953 114.344 15.9771 114.159 16.0316C113.973 16.0862 113.881 16.0098 113.881 15.8025ZM69.0379 40.2798L65.4615 32.5045H68.2564L70.2168 37.1935L70.5744 38.2797H70.6936L71.038 37.1935L73.0381 32.5045H75.7668L75.5548 33.2992L72.2301 40.2798H69.0379ZM77.9098 33.7761C77.0179 33.7761 76.572 33.3963 76.572 32.6369C76.572 32.213 76.6824 31.9216 76.9031 31.7627C77.1327 31.5949 77.4683 31.511 77.9098 31.511C78.3778 31.511 78.7178 31.5949 78.9297 31.7627C79.1505 31.9216 79.2609 32.213 79.2609 32.6369C79.2609 33.3963 78.8105 33.7761 77.9098 33.7761ZM76.6912 40.2798V34.3456H79.1019V40.2798H76.6912ZM81.1185 40.2798V34.3456H82.9994L83.5028 34.6106C83.909 34.3456 84.4476 34.2132 85.1188 34.2132C85.5603 34.2132 85.9488 34.2617 86.2844 34.3589C86.62 34.4472 86.8893 34.5443 87.0924 34.6503C87.3043 34.7563 87.4368 34.8313 87.4898 34.8755L86.8275 36.5974C86.7392 36.5356 86.5714 36.4517 86.3241 36.3458C86.0857 36.2398 85.8031 36.1427 85.4764 36.0544C85.1497 35.9572 84.8053 35.9086 84.4432 35.9086H84.2975C84.0503 35.9086 83.8604 35.9528 83.728 36.0411C83.5955 36.1206 83.5293 36.3016 83.5293 36.5842V40.2798H81.1185ZM92.772 42.6111C91.8624 42.6111 91.1207 42.5934 90.5467 42.5581C89.9727 42.5316 89.5312 42.4918 89.2221 42.4389C88.913 42.3859 88.7011 42.3241 88.5863 42.2534C88.4715 42.1916 88.4141 42.1298 88.4141 42.068L89.0764 40.6772C89.1735 40.7037 89.3899 40.7522 89.7254 40.8229C90.061 40.9023 90.5511 40.9421 91.1957 40.9421H93.1959C93.4255 40.9421 93.5888 40.9023 93.686 40.8229C93.7919 40.7434 93.8405 40.6065 93.8317 40.4122V39.8692C93.5579 39.9486 93.1738 40.0149 92.6793 40.0679C92.1936 40.112 91.624 40.1341 90.9706 40.1341H90.5864C90.0036 40.1341 89.5665 40.0546 89.2751 39.8957C88.9925 39.7279 88.8026 39.4983 88.7055 39.2069C88.6172 38.9155 88.573 38.5667 88.573 38.1604V36.306C88.573 36.0941 88.5951 35.8733 88.6393 35.6437C88.6923 35.4141 88.785 35.2022 88.9174 35.0079C89.0587 34.8137 89.2618 34.6547 89.5268 34.5311C89.8005 34.4074 90.1537 34.3456 90.5864 34.3456H90.9838C91.6019 34.3456 92.1053 34.3545 92.4938 34.3721C92.8824 34.3898 93.1914 34.4119 93.421 34.4384C93.6595 34.4648 93.8582 34.4913 94.0171 34.5178L94.3615 34.3456H96.2424V40.6507C96.2424 41.2335 96.057 41.7059 95.6861 42.068C95.3152 42.43 94.6971 42.6111 93.8317 42.6111H92.772ZM91.6593 38.4651H93.421C93.6241 38.4651 93.7434 38.4474 93.7787 38.4121C93.814 38.3768 93.8317 38.262 93.8317 38.0677V36.1073C93.6374 36.0897 93.4475 36.0764 93.2621 36.0676C93.0855 36.0499 92.8824 36.0367 92.6528 36.0279C92.432 36.019 92.1494 36.0146 91.805 36.0146H91.6593C91.2355 36.0146 91.0235 36.1912 91.0235 36.5444V37.9353C91.0147 38.2885 91.2266 38.4651 91.6593 38.4651ZM99.44 33.7761C98.5482 33.7761 98.1022 33.3963 98.1022 32.6369C98.1022 32.213 98.2126 31.9216 98.4334 31.7627C98.663 31.5949 98.9985 31.511 99.44 31.511C99.9081 31.511 100.248 31.5949 100.46 31.7627C100.681 31.9216 100.791 32.213 100.791 32.6369C100.791 33.3963 100.341 33.7761 99.44 33.7761ZM98.2214 40.2798V34.3456H100.632V40.2798H98.2214ZM102.781 40.2798V32.9416L102.649 31.8819H105.192V40.2798H102.781ZM108.378 33.7761C107.486 33.7761 107.04 33.3963 107.04 32.6369C107.04 32.213 107.15 31.9216 107.371 31.7627C107.601 31.5949 107.936 31.511 108.378 31.511C108.846 31.511 109.186 31.5949 109.398 31.7627C109.619 31.9216 109.729 32.213 109.729 32.6369C109.729 33.3963 109.279 33.7761 108.378 33.7761ZM107.159 40.2798V34.3456H109.57V40.2798H107.159ZM113.481 40.2798C112.898 40.2798 112.461 40.1959 112.169 40.0281C111.878 39.8603 111.684 39.6307 111.587 39.3393C111.498 39.0391 111.454 38.6947 111.454 38.3062V36.306C111.454 35.9351 111.503 35.604 111.6 35.3126C111.697 35.0123 111.887 34.7783 112.169 34.6106C112.461 34.4339 112.898 34.3456 113.481 34.3456H117.163C117.746 34.3456 118.179 34.4339 118.461 34.6106C118.753 34.7783 118.942 35.0123 119.031 35.3126C119.128 35.604 119.176 35.9351 119.176 36.306V38.3062C119.176 38.6947 119.128 39.0391 119.031 39.3393C118.942 39.6307 118.753 39.8603 118.461 40.0281C118.179 40.1959 117.746 40.2798 117.163 40.2798H113.481ZM114.54 38.6108H116.117C116.541 38.6108 116.748 38.4342 116.739 38.081V36.5444C116.739 36.3678 116.691 36.2354 116.594 36.1471C116.505 36.0588 116.346 36.0146 116.117 36.0146H114.554C114.324 36.0146 114.161 36.0588 114.064 36.1471C113.966 36.2354 113.918 36.3678 113.918 36.5444V38.081C113.909 38.4342 114.117 38.6108 114.54 38.6108Z" fill="#00BD95"/>
</svg>
