<svg width="56" height="55" viewBox="0 0 56 55" fill="none" xmlns="http://www.w3.org/2000/svg">
<path d="M24.8737 3.17543C27.0395 1.925 29.7079 1.925 31.8737 3.17543L47.6772 12.2996C49.843 13.55 51.1772 15.8609 51.1772 18.3618V36.6102C51.1772 39.111 49.843 41.4219 47.6772 42.6724L31.8737 51.7965C29.7079 53.047 27.0395 53.047 24.8737 51.7965L9.07012 42.6724C6.90431 41.4219 5.57012 39.111 5.57012 36.6102V18.3618C5.57012 15.8609 6.90431 13.55 9.07012 12.2996L24.8737 3.17543Z" fill="#155750" fill-opacity="0.2" stroke="#00BD95" stroke-width="2"/>
<path d="M32.5402 37.4861C32.5402 37.4861 32.5402 34.9639 32.5402 34.1528C32.5402 33.4528 32.7069 31.975 31.9846 31.375C33.5291 31.2305 34.7402 30.7305 35.8735 29.7083C37.0069 28.6861 37.5402 27.1416 37.5402 24.7083C37.5402 23.0416 37.2624 21.9305 36.4291 20.8194C36.7513 19.9528 36.8069 18.5972 36.4291 17.4861C34.6958 17.4861 33.1291 18.675 32.5402 19.1528C32.1069 19.0416 31.0624 18.5972 29.2069 18.5972C27.3513 18.5972 26.3069 19.0416 25.8735 19.1528C25.2846 18.675 23.718 17.4861 21.9846 17.4861C21.6069 18.5972 21.6624 19.9528 21.9846 20.8194C21.1513 21.9305 20.8735 23.0416 20.8735 24.7083C20.8735 27.1416 21.4069 28.6861 22.5402 29.7083C23.6735 30.7305 24.8846 31.2305 26.4291 31.375C25.7069 31.975 25.8735 33.4528 25.8735 34.1528C25.8735 34.9639 25.8735 37.4861 25.8735 37.4861" stroke="#00BD95" stroke-width="2" stroke-linecap="round" stroke-linejoin="round"/>
<path d="M25.8737 35.2639C24.3115 35.2639 22.7137 34.6383 21.7759 33.9439C20.8404 33.2506 20.5626 32.105 19.207 31.375" stroke="#00BD95" stroke-width="2" stroke-linecap="round" stroke-linejoin="round"/>
</svg>
